<?xml version="1.0" encoding="utf-8"?>
<!-- Generator: Adobe Illustrator 20.1.0, SVG Export Plug-In . SVG Version: 6.00 Build 0)  -->
<svg version="1.1" id="Laag_1" xmlns="http://www.w3.org/2000/svg" xmlns:xlink="http://www.w3.org/1999/xlink" x="0px" y="0px"
	 viewBox="0 0 50 50" style="enable-background:new 0 0 50 50;" xml:space="preserve">
<style type="text/css">
	.st0{fill:#F1F1F2;}
</style>
<g>
	<path class="st0" d="M21.2,48.3c0,0,3.4,0.6,6.4,0c0,0-2.3-11.7-0.4-24.2c0,0,0.9-3.4,1.8-4.2c0,0-3.1,5.8-4.7,3.1
		c0,0-1.5-2.8-1.5-7.8c0,0-0.5,6.2,0.2,9.9C23.1,24.9,24.7,30.9,21.2,48.3z"/>
	<g>
		<g>
			<circle class="st0" cx="20.9" cy="9.5" r="5.4"/>
			<circle class="st0" cx="20.9" cy="9.5" r="3.4"/>
			<circle class="st0" cx="20.9" cy="9.5" r="1.7"/>
		</g>
		<g>
			<circle class="st0" cx="33.3" cy="23.5" r="5.4"/>
			<circle class="st0" cx="33.3" cy="23.5" r="3.4"/>
			<circle class="st0" cx="33.3" cy="23.5" r="1.7"/>
		</g>
		<g>
			<circle class="st0" cx="24.9" cy="26.5" r="4.7"/>
			<circle class="st0" cx="24.9" cy="26.5" r="2.9"/>
			<circle class="st0" cx="24.9" cy="26.5" r="1.5"/>
		</g>
		<g>
			<circle class="st0" cx="16.6" cy="22.3" r="5.4"/>
			<circle class="st0" cx="16.6" cy="22.3" r="3.4"/>
			<circle class="st0" cx="16.6" cy="22.3" r="1.7"/>
		</g>
		<g>
			<circle class="st0" cx="27.8" cy="9.9" r="3.2"/>
			<circle class="st0" cx="27.8" cy="9.9" r="2"/>
			<circle class="st0" cx="27.8" cy="9.9" r="1"/>
		</g>
		<g>
			<circle class="st0" cx="33.7" cy="16.9" r="3.2"/>
			<circle class="st0" cx="33.7" cy="16.9" r="2"/>
			<circle class="st0" cx="33.7" cy="16.9" r="1"/>
		</g>
		<g>
			<circle class="st0" cx="27.1" cy="12.7" r="3.2"/>
			<circle class="st0" cx="27.1" cy="12.7" r="2"/>
			<circle class="st0" cx="27.1" cy="12.7" r="1"/>
		</g>
		<g>
			<circle class="st0" cx="20.3" cy="15.2" r="3.2"/>
			<circle class="st0" cx="20.3" cy="15.2" r="2"/>
			<circle class="st0" cx="20.3" cy="15.2" r="1"/>
		</g>
		<g>
			<circle class="st0" cx="14.6" cy="9.6" r="3.2"/>
			<circle class="st0" cx="14.6" cy="9.6" r="2"/>
			<circle class="st0" cx="14.6" cy="9.6" r="1"/>
		</g>
		<g>
			<circle class="st0" cx="31.1" cy="7.5" r="3.2"/>
			<circle class="st0" cx="31.1" cy="7.5" r="2"/>
			<circle class="st0" cx="31.1" cy="7.5" r="1"/>
		</g>
		<g>
			<circle class="st0" cx="34.3" cy="13" r="5"/>
			<circle class="st0" cx="34.3" cy="13" r="3.1"/>
			<circle class="st0" cx="34.3" cy="13" r="1.6"/>
		</g>
		<g>
			<circle class="st0" cx="27" cy="4.9" r="2.7"/>
			<circle class="st0" cx="27" cy="4.9" r="1.7"/>
			<circle class="st0" cx="27" cy="4.9" r="0.8"/>
		</g>
		<g>
			<circle class="st0" cx="13.2" cy="15.3" r="3.5"/>
			<circle class="st0" cx="13.2" cy="15.3" r="2.2"/>
			<circle class="st0" cx="13.2" cy="15.3" r="1.1"/>
		</g>
		<g>
			<circle class="st0" cx="17" cy="16.1" r="4.2"/>
			<circle class="st0" cx="17" cy="16.1" r="2.6"/>
			<circle class="st0" cx="17" cy="16.1" r="1.3"/>
		</g>
		<g>
			<ellipse transform="matrix(0.5129 -0.8584 0.8584 0.5129 -14.2152 30.623)" class="st0" cx="19.9" cy="27.8" rx="2.5" ry="2.5"/>
			<ellipse transform="matrix(0.5129 -0.8584 0.8584 0.5129 -14.215 30.6243)" class="st0" cx="19.9" cy="27.8" rx="1.6" ry="1.6"/>
			<ellipse transform="matrix(0.513 -0.8584 0.8584 0.513 -14.2152 30.622)" class="st0" cx="19.9" cy="27.8" rx="0.8" ry="0.8"/>
		</g>
		<g>
			<ellipse transform="matrix(0.5129 -0.8584 0.8584 0.5129 -6.3791 36.6749)" class="st0" cx="29.1" cy="24" rx="2.5" ry="2.5"/>
			<ellipse transform="matrix(0.513 -0.8584 0.8584 0.513 -6.3794 36.674)" class="st0" cx="29.1" cy="24" rx="1.6" ry="1.6"/>
			<ellipse transform="matrix(0.5131 -0.8583 0.8583 0.5131 -6.3809 36.6695)" class="st0" cx="29.1" cy="24" rx="0.8" ry="0.8"/>
		</g>
		<g>
			<ellipse transform="matrix(0.5129 -0.8584 0.8584 0.5129 3.1041 41.4617)" class="st0" cx="38.1" cy="18" rx="2.5" ry="2.5"/>
			<ellipse transform="matrix(0.513 -0.8584 0.8584 0.513 3.1033 41.4604)" class="st0" cx="38.1" cy="18" rx="1.6" ry="1.6"/>
			<ellipse transform="matrix(0.5129 -0.8584 0.8584 0.5129 3.105 41.4629)" class="st0" cx="38.1" cy="18" rx="0.8" ry="0.8"/>
		</g>
		<g>
			<circle class="st0" cx="25.6" cy="18.3" r="5.4"/>
			<circle class="st0" cx="25.6" cy="18.3" r="3.4"/>
			<circle class="st0" cx="25.6" cy="18.3" r="1.7"/>
		</g>
	</g>
</g>
</svg>
