<?xml version="1.0" encoding="utf-8"?>
<!-- Generator: Adobe Illustrator 20.1.0, SVG Export Plug-In . SVG Version: 6.00 Build 0)  -->
<svg version="1.1" id="Laag_1" xmlns="http://www.w3.org/2000/svg" xmlns:xlink="http://www.w3.org/1999/xlink" x="0px" y="0px"
	 viewBox="0 0 50 50" style="enable-background:new 0 0 50 50;" xml:space="preserve">
<style type="text/css">
	.st0{fill:#F1F1F2;}
</style>
<rect x="33.6" y="28.5" class="st0" width="14.1" height="11.3"/>
<rect x="3.1" y="25.7" class="st0" width="14.1" height="14.1"/>
<rect x="18.4" y="18.6" class="st0" width="14.1" height="21.2"/>
<g>
	<path class="st0" d="M23.9,16.9c0-0.6,0.1-1.6,0.2-2.9s0.1-2.3,0.1-2.8c-0.1,0.1-0.3,0.2-0.4,0.3c-0.1,0.1-0.4,0.3-0.9,0.6
		c0-0.3,0-0.7,0.1-1.1s0-0.8,0-1c0.2-0.1,0.4-0.2,0.7-0.4s0.4-0.3,0.5-0.3c0.1,0,0.1-0.1,0.3-0.2c0.3,0,0.7,0,1.2,0
		c0.4,0,0.9,0,1.3,0l-0.1,1.3l-0.2,4.3l-0.1,1.6v0.7c-0.3,0-0.7,0-1.2,0C24.8,16.9,24.3,16.9,23.9,16.9z"/>
</g>
<g>
	<path class="st0" d="M8.5,24.7c0-0.1,0-0.3,0-0.5c0-0.2,0-0.4,0-0.7c0.3-0.2,0.5-0.5,0.8-0.7c0.4-0.4,0.7-0.7,1-1
		c0.2-0.2,0.4-0.5,0.6-0.7c0.1-0.1,0.2-0.2,0.2-0.3c0-0.1,0-0.1,0-0.2c0-0.1,0-0.1-0.1-0.2c0-0.1-0.1-0.1-0.2-0.1s-0.2-0.1-0.3-0.1
		c-0.1,0-0.2,0-0.4,0c-0.2,0-0.4,0-0.6,0s-0.5,0.1-0.9,0.2L9,19.8c0-0.1,0.1-0.3,0.1-0.7c0.7-0.1,1.4-0.2,2-0.2c0.3,0,0.6,0,0.8,0.1
		c0.3,0.1,0.5,0.1,0.7,0.3c0.2,0.1,0.4,0.3,0.5,0.4s0.2,0.3,0.2,0.5c0,0.1,0,0.3,0,0.4c0,0.1-0.1,0.3-0.2,0.4
		c-0.1,0.2-0.2,0.4-0.4,0.6c-0.2,0.3-0.5,0.6-0.8,0.9c-0.3,0.3-0.6,0.6-1,1l0.5,0c0.1,0,0.3,0,0.6,0c0.3,0,0.5,0,0.7,0
		c0.1,0,0.3,0,0.5,0c0,0.1,0,0.3,0,0.5c0,0.2,0,0.4-0.1,0.7c-0.7,0-1.4,0-2.1,0C9.9,24.7,9.2,24.7,8.5,24.7z"/>
</g>
<g>
	<path class="st0" d="M38.3,27.6c0-0.6-0.1-1-0.1-1.3c0.6,0.2,1.2,0.3,1.7,0.3c0.3,0,0.6-0.1,0.7-0.2s0.3-0.3,0.3-0.5
		c0-0.2-0.1-0.3-0.3-0.4s-0.5-0.1-0.9-0.1c-0.3,0-0.5,0-0.7,0c0-0.4,0.1-0.8,0.1-1.3c0.2,0,0.4,0.1,0.6,0.1c0.2,0,0.5,0,0.6,0
		s0.3-0.1,0.4-0.2c0.1-0.1,0.1-0.2,0.1-0.3c0-0.1,0-0.2-0.1-0.3c-0.1-0.1-0.2-0.1-0.3-0.2c-0.1,0-0.3,0-0.5,0c-0.2,0-0.4,0-0.6,0
		c-0.2,0-0.5,0.1-0.8,0.1l0.2-1c0-0.1,0-0.2,0-0.3C39.5,22,40,22,40.5,22c0.3,0,0.6,0,0.9,0.1s0.6,0.1,0.8,0.2
		c0.2,0.1,0.4,0.3,0.5,0.5c0.1,0.2,0.2,0.4,0.2,0.6c0,0.1,0,0.3-0.1,0.4s-0.1,0.2-0.2,0.4c-0.1,0.1-0.2,0.2-0.3,0.3
		s-0.2,0.2-0.3,0.2c-0.1,0.1-0.2,0.1-0.4,0.2c0.2,0,0.3,0.1,0.4,0.1s0.2,0.1,0.3,0.2c0.1,0.1,0.2,0.2,0.3,0.3
		c0.1,0.1,0.1,0.2,0.2,0.3c0,0.1,0,0.3,0,0.4c0,0.3-0.1,0.5-0.2,0.8c-0.1,0.2-0.3,0.4-0.6,0.6c-0.2,0.2-0.5,0.3-0.8,0.3
		c-0.3,0.1-0.6,0.1-0.9,0.1c-0.3,0-0.6,0-0.9,0S38.7,27.7,38.3,27.6z"/>
</g>
</svg>
