<?xml version="1.0" encoding="utf-8"?>
<!-- Generator: Adobe Illustrator 20.1.0, SVG Export Plug-In . SVG Version: 6.00 Build 0)  -->
<svg version="1.1" id="Laag_1" xmlns="http://www.w3.org/2000/svg" xmlns:xlink="http://www.w3.org/1999/xlink" x="0px" y="0px"
	 viewBox="0 0 50 50" style="enable-background:new 0 0 50 50;" xml:space="preserve">
<style type="text/css">
	.st0{fill:none;stroke:#F1F1F2;stroke-width:3;stroke-miterlimit:10;}
	.st1{fill:#F1F1F2;}
</style>
<g>
	<polyline class="st0" points="6.4,13.9 6.4,6 13.9,6 	"/>
	<polyline class="st0" points="14.3,43.5 6.4,43.5 6.4,36 	"/>
	<polyline class="st0" points="43.9,35.7 43.9,43.5 36.5,43.5 	"/>
	<polyline class="st0" points="36.1,6 43.9,6 43.9,13.5 	"/>
</g>
<path class="st1" d="M27.5,13.8c-14.2-3.5-5.4,21.5-5.4,21.5S41.6,17.4,27.5,13.8z M26,23.9c-1.9,0-3.4-1.5-3.4-3.4s1.5-3.4,3.4-3.4
	c1.9,0,3.4,1.5,3.4,3.4S27.9,23.9,26,23.9z"/>
</svg>
