<?xml version="1.0" encoding="utf-8"?>
<!-- Generator: Adobe Illustrator 20.1.0, SVG Export Plug-In . SVG Version: 6.00 Build 0)  -->
<svg version="1.1" id="Laag_1" xmlns="http://www.w3.org/2000/svg" xmlns:xlink="http://www.w3.org/1999/xlink" x="0px" y="0px"
	 viewBox="0 0 50 50" style="enable-background:new 0 0 50 50;" xml:space="preserve">
<style type="text/css">
	.st0{fill:none;}
	.st1{fill:#F1F1F2;}
</style>
<g>
	<circle class="st0" cx="25.3" cy="25.1" r="8.8"/>
	<path class="st1" d="M46.7,28.7v-7.3h-4c-0.5-2.4-1.5-4.7-2.9-6.7l2.6-2.6L37.2,7l-2.8,2.8c-1.7-1-3.5-1.8-5.5-2.2v-4h-7.3v4
		c-2.2,0.5-4.3,1.3-6.1,2.5L12.4,7l-5.1,5.1l3.2,3.2c-1.2,1.8-2.1,3.9-2.5,6.1h-4v7.3h4c0.4,2,1.2,3.8,2.2,5.5l-3.5,3.5l5.1,5.1
		l3.3-3.3c2,1.4,4.2,2.4,6.7,2.9v4h7.3v-4c2.2-0.5,4.3-1.3,6.1-2.5l2.9,2.9l5.1-5.1l-2.9-2.9c1.2-1.8,2.1-3.9,2.5-6.1H46.7z
		 M25.3,33.9c-4.9,0-8.8-3.9-8.8-8.8s3.9-8.8,8.8-8.8s8.8,3.9,8.8,8.8S30.1,33.9,25.3,33.9z"/>
</g>
</svg>
